<svg width="103" height="86" viewBox="0 0 103 86" fill="none" xmlns="http://www.w3.org/2000/svg">
<path d="M89.7001 2.7C91.1088 1.35889 92.9834 0.617472 94.9283 0.632188C96.8732 0.646904 98.7364 1.41661 100.125 2.77888C101.513 4.14115 102.318 5.98944 102.369 7.93374C102.42 9.87804 101.714 11.7663 100.4 13.2L40.5001 83.1C39.814 83.839 38.986 84.432 38.0654 84.8437C37.1449 85.2553 36.1508 85.4771 35.1426 85.4958C34.1344 85.5144 33.1328 85.3296 32.1977 84.9523C31.2625 84.5751 30.4131 84.0131 29.7001 83.3L3.24011 56.84C2.50324 56.1534 1.91222 55.3254 1.5023 54.4054C1.09238 53.4854 0.871962 52.4923 0.854195 51.4852C0.836427 50.4782 1.02168 49.4779 1.39889 48.544C1.7761 47.6101 2.33754 46.7618 3.04973 46.0496C3.76192 45.3374 4.61025 44.776 5.54414 44.3988C6.47802 44.0216 7.47831 43.8363 8.48534 43.8541C9.49237 43.8719 10.4855 44.0923 11.4055 44.5022C12.3255 44.9121 13.1535 45.5031 13.8401 46.24L34.7801 67.17L89.5101 2.92001C89.5726 2.84302 89.6394 2.76956 89.7101 2.7H89.7001Z" fill="url(#paint0_linear_7_3651)"/>
<defs>
<linearGradient id="paint0_linear_7_3651" x1="0.853027" y1="43.0645" x2="105.091" y2="58.5088" gradientUnits="userSpaceOnUse">
<stop offset="0.314762" stop-color="#EF426F"/>
<stop offset="1" stop-color="#F0F179"/>
</linearGradient>
</defs>
</svg>
